<?xml version="1.0" encoding="UTF-8" standalone="no"?>
<svg
   xmlns:dc="http://purl.org/dc/elements/1.1/"
   xmlns:cc="http://creativecommons.org/ns#"
   xmlns:rdf="http://www.w3.org/1999/02/22-rdf-syntax-ns#"
   xmlns:svg="http://www.w3.org/2000/svg"
   xmlns="http://www.w3.org/2000/svg"
   xmlns:sodipodi="http://sodipodi.sourceforge.net/DTD/sodipodi-0.dtd"
   xmlns:inkscape="http://www.inkscape.org/namespaces/inkscape"
   width="180.13467mm"
   height="180.13467mm"
   viewBox="0 0 180.13467 180.13467"
   version="1.1"
   id="svg8"
   inkscape:version="1.0.2 (1.0.2+r75+1)"
   sodipodi:docname="logo.svg">
  <defs
     id="defs2" />
  <sodipodi:namedview
     id="base"
     pagecolor="#ffffff"
     bordercolor="#666666"
     borderopacity="1.0"
     inkscape:pageopacity="0.0"
     inkscape:pageshadow="2"
     inkscape:zoom="0.79759411"
     inkscape:cx="346.81382"
     inkscape:cy="448.89062"
     inkscape:document-units="mm"
     inkscape:current-layer="g923"
     inkscape:document-rotation="0"
     showgrid="false"
     inkscape:window-width="1920"
     inkscape:window-height="1042"
     inkscape:window-x="0"
     inkscape:window-y="18"
     inkscape:window-maximized="1"
     fit-margin-top="0"
     fit-margin-left="0"
     fit-margin-right="0"
     fit-margin-bottom="0" />
  <metadata
     id="metadata5">
    <rdf:RDF>
      <cc:Work
         rdf:about="">
        <dc:format>image/svg+xml</dc:format>
        <dc:type
           rdf:resource="http://purl.org/dc/dcmitype/StillImage" />
        <dc:title></dc:title>
      </cc:Work>
    </rdf:RDF>
  </metadata>
  <g
     inkscape:label="Layer 1"
     inkscape:groupmode="layer"
     id="layer1"
     transform="translate(-12.083877,-48.420096)">
    <g
       id="g923"
       transform="translate(-161.70029,140.09823)">
      <circle
         style="fill:#f2ca79;fill-rule:evenodd;stroke:#000000;stroke-width:6.00001;stroke-linecap:round;stroke-linejoin:round"
         id="path917"
         cx="263.8515"
         cy="-1.6107998"
         r="87.067329" />
      <path
         style="fill:#000000;stroke-width:1"
         d="m 220.8226,62.73671 c -0.64399,-0.24758 -1.41015,-0.93595 -1.63017,-1.46466 -0.23588,-0.56679 -0.21278,-1.58418 0.0555,-2.44351 0.11627,-0.37246 6.08866,-15.41359 13.27197,-33.42473 17.74666,-44.49723 24.11411,-60.47323 25.19786,-63.22161 1.25508,-3.18285 1.50866,-3.58389 2.60843,-4.12531 l 0.6255,-0.30793 5.29174,0.003 c 5.1894,0.003 5.3023,0.007 5.83805,0.21243 0.67896,0.26025 1.31626,0.81118 1.64981,1.42623 0.14011,0.25835 0.43596,0.94861 0.65745,1.5339 0.22149,0.5853 2.31939,5.85296 4.66199,11.70591 2.34261,5.85296 7.58909,19.0221205 11.65885,29.2647905 4.06976,10.2426695 7.42194,18.6774595 7.44928,18.7439695 0.039,0.0948 -0.46436,0.12093 -2.33083,0.12093 -1.30931,0 -2.38055,0.0212 -2.38055,0.047 0,0.10393 1.82782,4.7242 8.24827,20.84951 3.69688,9.28491 6.77985,17.0558 6.85105,17.26864 0.18035,0.5391 0.1643,1.84721 -0.0281,2.28696 -0.22784,0.52087 -0.82057,1.12906 -1.37597,1.41189 -0.65051,0.33127 -1.70927,0.41229 -2.32328,0.17781 -0.97559,-0.37259 -1.47403,-1.17705 -2.79154,-4.50549 -0.34752,-0.87795 -2.89563,-7.2775 -5.66247,-14.22124 -2.76683,-6.94373 -5.84244,-14.69285 -6.83468,-17.22026 -0.99223,-2.52742 -1.90914,-4.77573 -2.03757,-4.99626 -0.54397,-0.93407 -1.17918,-1.19395 -2.47129,-1.01107 -1.01246,0.14329 -1.50965,0.0827 -2.15075,-0.26202 -0.91797,-0.49363 -1.10566,-0.85594 -3.09199,-5.96865 -3.13393,-8.0665895 -11.64516,-29.44324 -11.79638,-29.62757 -0.37739,-0.46004 -0.36342,-1.81442 -0.38932,37.7298 l -0.0248,37.85073 -0.2711,0.58046 c -0.31181,0.66762 -0.81724,1.23107 -1.37353,1.53121 -0.56195,0.30317 -1.95559,0.30089 -2.52773,-0.004 -0.51898,-0.2767 -1.13619,-0.98369 -1.35892,-1.55661 -0.16975,-0.43662 -0.17752,-1.97703 -0.20133,-39.89102 -0.0223,-35.56639 -0.0395,-39.44253 -0.17517,-39.49458 -0.11376,-0.0436 -0.23391,0.12471 -0.49328,0.69126 -0.33618,0.73431 -8.91289,22.2159905 -12.63983,31.65839 -1.03958,2.63383 -1.96369,4.96292 -2.05357,5.17575 -0.25898,0.61325 -0.70021,1.16192 -1.12755,1.40209 -0.37161,0.20886 -0.45629,0.21744 -1.46928,0.14887 -1.77492,-0.12014 -2.20875,-0.0506 -2.88481,0.46239 -0.60159,0.45649 -1.0719,1.20896 -1.61378,2.58195 -0.2625,0.66511 -1.35619,3.45127 -2.43043,6.19148 -2.82163,7.19752 -12.15674,30.51463 -12.44222,31.078 -0.32825,0.64776 -0.94848,1.29965 -1.50475,1.58153 -0.58547,0.29668 -1.4537,0.30855 -2.17879,0.0298 z m 64.37833,-57.2264295 0.58549,-0.0612 -0.22431,-0.59182 c -1.12297,-2.96296 -12.01615,-30.2924405 -12.19958,-30.6070805 -0.28106,-0.48208 -0.56117,-0.6879 -1.04251,-0.76601 -0.3677,-0.0597 -2.08055,0.13283 -2.28028,0.25628 -0.14976,0.0926 -0.25578,-0.18168 6.48761,16.77985 3.02338,7.6046605 5.61843,14.0213805 5.76678,14.2593805 0.47204,0.75733 1.11203,0.91818 2.9068,0.73059 z M 259.71765,-46.67896 c -2.05964,-0.3441 -3.09191,-1.5733 -3.41557,-4.06715 -0.0578,-0.44507 -0.15193,-1.01599 -0.20926,-1.26874 l -0.10425,-0.45952 h -2.21544 -2.21544 v -3.86973 -3.86972 h 2.26098 2.26099 l 0.0673,-0.89487 c 0.1413,-1.87744 0.49337,-2.91532 1.27089,-3.74655 0.52772,-0.56417 1.37291,-1.0142 2.21783,-1.1809 0.85885,-0.16944 11.20544,-0.16239 11.99615,0.008 1.74611,0.37666 2.83154,1.45907 3.1983,3.18941 0.19861,0.93701 0.19861,12.05191 0,12.98893 -0.26582,1.2541 -0.8992,2.15902 -1.87531,2.67928 -1.09412,0.58316 -1.24708,0.59545 -7.27269,0.58456 -3.0063,-0.005 -5.69033,-0.0474 -5.96454,-0.0932 z"
         id="path919" />
    </g>
  </g>
</svg>
