<?xml version="1.0" standalone="no"?>
<!DOCTYPE svg PUBLIC "-//W3C//DTD SVG 20010904//EN"
 "http://www.w3.org/TR/2001/REC-SVG-20010904/DTD/svg10.dtd">
<svg version="1.0" xmlns="http://www.w3.org/2000/svg"
 width="700.000000pt" height="700.000000pt" viewBox="0 0 700.000000 700.000000"
 preserveAspectRatio="xMidYMid meet">
<metadata>
Created by potrace 1.14, written by Peter Selinger 2001-2017
</metadata>
<g transform="translate(0.000000,700.000000) scale(0.100000,-0.100000)"
fill="#000000" stroke="none">
<path d="M3278 6995 c-1 -1 -42 -5 -89 -9 -47 -4 -95 -8 -105 -10 -10 -2 -41
-7 -69 -10 -99 -13 -222 -36 -325 -62 -58 -14 -114 -27 -126 -30 -93 -18 -419
-142 -579 -220 -179 -86 -459 -253 -554 -330 -9 -7 -52 -41 -96 -75 -340 -264
-650 -624 -875 -1014 -47 -81 -170 -327 -170 -339 0 -3 -11 -29 -24 -58 -43
-96 -112 -298 -142 -413 -4 -16 -8 -34 -10 -40 -5 -16 -25 -98 -30 -120 -48
-236 -54 -276 -71 -465 -15 -165 -8 -592 12 -711 2 -13 6 -46 9 -74 9 -78 22
-152 51 -285 21 -96 91 -339 114 -395 5 -11 25 -65 46 -120 63 -166 249 -531
312 -610 4 -6 34 -49 65 -95 31 -47 98 -136 148 -199 449 -556 1032 -950 1716
-1160 55 -18 109 -33 120 -35 10 -2 57 -13 104 -25 109 -26 200 -43 299 -57
25 -3 57 -8 71 -10 163 -25 682 -25 841 1 13 2 47 7 74 10 72 10 86 12 120 19
17 3 44 8 60 11 193 37 411 101 621 184 128 50 421 193 475 231 15 11 32 20
38 20 6 0 11 5 11 10 0 6 5 10 10 10 15 0 220 141 330 227 152 118 324 280
450 422 36 41 70 79 76 85 6 6 48 61 94 121 150 197 277 405 383 628 26 53 47
99 47 102 0 2 11 28 24 57 57 127 151 421 182 573 17 81 54 301 59 350 4 33 9
71 11 85 9 46 11 524 4 605 -12 126 -20 202 -25 226 -3 13 -7 41 -10 64 -18
129 -81 383 -136 547 -348 1036 -1167 1857 -2204 2206 -168 57 -420 119 -555
137 -19 3 -46 7 -60 10 -13 2 -52 7 -86 11 -33 3 -74 8 -90 10 -33 5 -540 14
-546 9z"/>
</g>
</svg>
